<?xml version="1.0" encoding="UTF-8" standalone="no"?>
<svg
   xmlns:dc="http://purl.org/dc/elements/1.1/"
   xmlns:cc="http://creativecommons.org/ns#"
   xmlns:rdf="http://www.w3.org/1999/02/22-rdf-syntax-ns#"
   xmlns:svg="http://www.w3.org/2000/svg"
   xmlns="http://www.w3.org/2000/svg"
   viewBox="0 0 433.625 106.425"
   height="106.425"
   width="433.625"
   xml:space="preserve"
   version="1.1"
   id="svg2"><metadata
     id="metadata8"><rdf:RDF><cc:Work
         rdf:about=""><dc:format>image/svg+xml</dc:format><dc:type
           rdf:resource="http://purl.org/dc/dcmitype/StillImage" /><dc:title></dc:title></cc:Work></rdf:RDF></metadata><defs
     id="defs6" /><g
     transform="matrix(1.25,0,0,-1.25,0,106.425)"
     id="g10"><g
       transform="scale(0.1,0.1)"
       id="g12"><path
         id="path14"
         style="fill:#1b1615;fill-opacity:1;fill-rule:evenodd;stroke:none"
         d="m 770.992,131.719 159.512,0 c 114.746,0 157.876,73.246 157.876,170.094 0,75.679 -30.11,116.375 -81.38,139.164 48.83,19.531 69.99,72.425 69.99,122.886 0,100.102 -48.02,155.442 -156.256,155.442 l -149.742,0 0,-587.586 z m 100.914,504.574 38.25,0 c 44.758,0 65.918,-28.484 65.918,-83.012 0,-48.828 -29.297,-74.871 -67.547,-74.871 l -36.621,0 0,157.883 z m 0,-240.891 32.555,0 c 60.223,0 83.008,-30.117 83.008,-90.339 0,-59.403 -19.531,-90.336 -73.242,-90.336 l -42.321,0 0,180.675" /><path
         id="path16"
         style="fill:#1b1615;fill-opacity:1;fill-rule:nonzero;stroke:none"
         d="m 1219.45,131.719 0,587.586 -91.14,0 0,-587.586 91.14,0 0,0" /><path
         id="path18"
         style="fill:#1b1615;fill-opacity:1;fill-rule:nonzero;stroke:none"
         d="m 1463.52,569.559 0,-343.434 c -21.16,-15.465 -39.06,-27.672 -58.59,-27.672 -19.53,0 -32.56,9.77 -32.56,31.738 l 0,339.368 -91.14,0 0,-354.016 c 0,-56.969 28.48,-91.961 76.49,-91.961 52.9,0 72.43,19.531 110.69,52.082 l 0,-43.945 86.26,0 0,437.84 -91.15,0 0,0" /><path
         id="path20"
         style="fill:#1b1615;fill-opacity:1;fill-rule:evenodd;stroke:none"
         d="m 1893.88,414.93 c 0,96.035 -37.44,162.765 -141.61,162.765 -104.17,0 -141.6,-66.73 -141.6,-162.765 l 0,-128.582 c 0,-96.032 37.43,-162.766 141.6,-162.766 101.73,0 139.98,63.481 141.61,156.254 l -91.15,0 0,-9.766 c 0,-50.457 -17.91,-71.617 -50.46,-71.617 -32.55,0 -50.46,21.16 -50.46,71.617 l 0,63.477 192.07,0 0,81.383 z m -192.07,-6.512 0,22.789 c 0,50.461 17.91,71.621 50.46,71.621 32.55,0 50.46,-21.16 50.46,-71.621 l 0,-22.789 -100.92,0 0,0" /><path
         id="path22"
         style="fill:#1b1615;fill-opacity:1;fill-rule:nonzero;stroke:none"
         d="m 3403.97,682.32 -7.94,0 0,-21.675 4.89,0 c 11.29,0 14.95,6.414 14.95,12.214 0,6.715 -3.04,9.461 -11.9,9.461 z m 12.52,-60.746 -19.54,31.137 -0.92,0 0,-31.137 -12.21,0 0,70.516 21.37,0 c 16.79,0 23.51,-7.02 23.51,-17.707 0,-11.903 -7.33,-19.231 -18.62,-20.453 1.52,-1.828 4.27,-5.801 7.02,-10.075 l 14.65,-22.281 -15.26,0 z m -61.67,35.41 c 0,-27.472 22.28,-51.285 49.76,-51.285 27.78,0 49.76,22.59 49.76,50.067 0,27.777 -21.98,51.281 -49.76,51.281 -27.48,0 -49.76,-22.59 -49.76,-50.063 z m 114.17,-0.613 c 0,-34.797 -29.61,-64.101 -64.41,-64.101 -36.33,0 -64.1,28.082 -64.1,64.101 0,35.414 28.69,64.109 64.1,64.109 36.33,0 64.41,-27.781 64.41,-64.109" /><path
         id="path24"
         style="fill:#1b1615;fill-opacity:1;fill-rule:nonzero;stroke:none"
         d="m 1974.28,494.688 0,-272.633 c 0,-66.735 38.24,-98.473 106.6,-98.473 22.79,0 33.37,1.633 45.57,4.883 l 0,78.125 -30.1,0 c -21.16,0 -30.93,13.023 -30.93,35.808 l 0,252.29 61.03,0 0,74.871 -61.03,0 0,118.004 -91.14,0 0,-118.004 -50.46,0 0,-74.871 50.46,0 0,0" /><path
         id="path26"
         style="fill:#1b1615;fill-opacity:1;fill-rule:evenodd;stroke:none"
         d="m 2164.5,286.348 c 0,-96.032 37.44,-162.766 141.61,-162.766 104.17,0 141.6,66.734 141.6,162.766 l 0,128.582 c 0,96.035 -37.43,162.765 -141.6,162.765 -104.17,0 -141.61,-66.73 -141.61,-162.765 l 0,-128.582 z m 192.07,-16.278 c 0,-50.457 -17.9,-71.617 -50.46,-71.617 -32.55,0 -50.46,21.16 -50.46,71.617 l 0,161.137 c 0,50.461 17.91,71.621 50.46,71.621 32.56,0 50.46,-21.16 50.46,-71.621 l 0,-161.137" /><path
         id="path28"
         style="fill:#1b1615;fill-opacity:1;fill-rule:evenodd;stroke:none"
         d="m 2495.58,286.348 c 0,-96.032 37.43,-162.766 141.6,-162.766 104.17,0 141.61,66.734 141.61,162.766 l 0,128.582 c 0,96.035 -37.44,162.765 -141.61,162.765 -104.17,0 -141.6,-66.73 -141.6,-162.765 l 0,-128.582 z m 192.06,-16.278 c 0,-50.457 -17.91,-71.617 -50.46,-71.617 -32.55,0 -50.46,21.16 -50.46,71.617 l 0,161.137 c 0,50.461 17.91,71.621 50.46,71.621 32.55,0 50.46,-21.16 50.46,-71.621 l 0,-161.137" /><path
         id="path30"
         style="fill:#1b1615;fill-opacity:1;fill-rule:nonzero;stroke:none"
         d="m 2856.74,494.688 0,-272.633 c 0,-66.735 38.26,-98.473 106.62,-98.473 22.78,0 33.36,1.633 45.57,4.883 l 0,78.125 -30.11,0 c -21.16,0 -30.92,13.023 -30.92,35.808 l 0,252.29 61.03,0 0,74.871 -61.03,0 0,118.004 -91.16,0 0,-118.004 -50.45,0 0,-74.871 50.45,0 0,0" /><path
         id="path32"
         style="fill:#1b1615;fill-opacity:1;fill-rule:nonzero;stroke:none"
         d="m 3156.85,131.719 0,343.437 c 21.15,15.461 39.06,27.672 58.59,27.672 19.53,0 32.56,-9.769 32.56,-31.742 l 0,-339.367 91.14,0 0,354.015 c 0,56.969 -28.48,91.961 -76.49,91.961 -52.91,0 -72.44,-19.527 -105.8,-48.828 l 0,190.438 -91.15,0 0,-587.586 91.15,0 0,0" /><path
         id="path34"
         style="fill:#ffffff;fill-opacity:1;fill-rule:evenodd;stroke:none"
         d="m 557.41,429.523 c 0,-222.144 -108.859,-402.23 -243.144,-402.23 -134.286,0 -243.141,180.086 -243.141,402.23 0,222.149 108.855,402.231 243.141,402.231 134.285,0 243.144,-180.082 243.144,-402.231" /><path
         id="path36"
         style="fill:#176fc1;fill-opacity:1;fill-rule:evenodd;stroke:none"
         d="m 314.074,0 c 185.887,0 314.004,88.3086 314.004,425.703 0,337.391 -128.117,425.703 -314.004,425.703 C 128.18,851.406 0,763.094 0,425.703 0,88.3086 128.18,0 314.074,0 l 0,0 z m -40.769,425.699 -152.184,152.578 44.102,44.102 121.265,-121.266 0,290.641 220.465,-220.465 -145.59,-145.59 145.59,-145.586 -220.465,-220.4646 0,290.6406 -121.265,-121.269 -44.102,44.097 152.184,152.582 0,0 z m 75.148,-215.469 70.395,70.395 -70.34,70.34 -0.055,-140.735 0,0 z m 0,430.938 70.395,-70.395 -70.34,-70.343 -0.055,140.738 0,0" /></g></g></svg>